<?xml version="1.0" standalone="no"?>
<!DOCTYPE svg PUBLIC "-//W3C//DTD SVG 20010904//EN"
 "http://www.w3.org/TR/2001/REC-SVG-20010904/DTD/svg10.dtd">
<svg version="1.0" xmlns="http://www.w3.org/2000/svg"
 width="48.000000pt" height="44.000000pt" viewBox="0 0 48.000000 44.000000"
 preserveAspectRatio="xMidYMid meet">

<g transform="translate(0.000000,44.000000) scale(0.100000,-0.100000)"
fill="#000000" stroke="none">
<path d="M80 333 c0 -9 112 -193 121 -199 4 -2 16 8 27 23 34 49 102 165 102
174 0 5 -56 9 -125 9 -69 0 -125 -3 -125 -7z m88 -48 c-11 -20 -21 -35 -22
-33 -2 2 -13 18 -25 36 l-22 32 45 0 45 0 -21 -35z m120 0 c-11 -20 -21 -35
-22 -33 -2 2 -13 18 -25 36 l-22 32 45 0 45 0 -21 -35z m-42 -38 c6 -18 -33
-90 -44 -83 -4 2 -15 20 -25 38 -18 34 -18 35 4 72 l22 38 18 -23 c10 -13 21
-32 25 -42z"/>
</g>
</svg>
